# xmcd CD database file
#
# Track frame offsets:
#	150
#	29337
#	60550
#	100750
#	121750
#	157450
#	180275
#
# Disc length: 2850 seconds
#
# Revision: 0
# Processed by: cddbd v1.5.1PL0 Copyright (c) Steve Scherf et al.
# Submitted via: CDex 1.51
#
DISCID=520b2007
DTITLE=Peter O'Mara Trio - Kuranda
DYEAR=1991
DGENRE=Jazz
TTITLE0=Stay Or Go
TTITLE1=Terrible Ooze
TTITLE2=Jack-Knife
TTITLE3=Quiet
TTITLE4=Walls Fall
TTITLE5=Kuranda
TTITLE6=Completion
EXTD=YEAR: 1991
EXTT0=
EXTT1=
EXTT2=
EXTT3=
EXTT4=
EXTT5=
EXTT6=
PLAYORDER=
